HIERARCHY
ROOT Hips
{
	OFFSET 0.00000 0.00000 0.00000
	CHANNELS 6 Xposition Yposition Zposition Zrotation Yrotation Xrotation 
	JOINT LHipJoint
	{
		OFFSET 0 0 0
		CHANNELS 3 Zrotation Yrotation Xrotation
		JOINT LeftHip
		{
			OFFSET 1.62329 -1.80800 0.67318
			CHANNELS 3 Zrotation Yrotation Xrotation
			JOINT LeftKnee
			{
				OFFSET 2.57139 -7.06484 0.00000
				CHANNELS 3 Zrotation Yrotation Xrotation
				JOINT LeftAnkle
				{
					OFFSET 2.52017 -6.92413 0.00000
					CHANNELS 3 Zrotation Yrotation Xrotation
					JOINT LeftToe
					{
						OFFSET 0.23295 -0.64001 2.10214
						CHANNELS 3 Zrotation Yrotation Xrotation
						End Site
						{
							OFFSET 0.00000 -0.00000 1.10139
						}
					}
				}
			}
		}
	}
	JOINT RHipJoint
	{
		OFFSET 0 0 0
		CHANNELS 3 Zrotation Yrotation Xrotation
		JOINT RightHip
		{
			OFFSET -1.48061 -1.80800 0.67318
			CHANNELS 3 Zrotation Yrotation Xrotation
			JOINT RightKnee
			{
				OFFSET -2.63258 -7.23296 0.00000
				CHANNELS 3 Zrotation Yrotation Xrotation
				JOINT RightAnkle
				{
					OFFSET -2.54779 -7.00000 0.00000
					CHANNELS 3 Zrotation Yrotation Xrotation
					JOINT RightToe
					{
						OFFSET -0.23067 -0.63376 2.12161
						CHANNELS 3 Zrotation Yrotation Xrotation
						End Site
						{
							OFFSET -0.00000 -0.00000 1.11000
						}
					}
				}
			}
		}
	}
	JOINT lowerback
	{
		OFFSET 0 0 0
		CHANNELS 3 Zrotation Yrotation Xrotation
		JOINT Chest
		{
			OFFSET -0.02108 2.07573 -0.16981
			CHANNELS 3 Zrotation Yrotation Xrotation
			JOINT Chest2
			{
				OFFSET 0.05070 2.08439 -0.03141
				CHANNELS 3 Zrotation Yrotation Xrotation
				JOINT lowerneck
				{
					OFFSET 0 0 0
					CHANNELS 3 Zrotation Yrotation Xrotation
					JOINT Neck
					{
						OFFSET -0.10731 1.60408 0.31370
						CHANNELS 3 Zrotation Yrotation Xrotation
						JOINT Head
						{
							OFFSET 0.08411 1.65679 -0.30822
							CHANNELS 3 Zrotation Yrotation Xrotation
							End Site
							{
								OFFSET 0.03911 1.69149 -0.14146
							}
						}
					}
				}
				JOINT LeftCollar
				{
					OFFSET 0 0 0
					CHANNELS 3 Zrotation Yrotation Xrotation
					JOINT LeftShoulder
					{
						OFFSET 3.52315 0.73219 -0.54694
CHANNELS 3 Zrotation Xrotation Yrotation
						JOINT LeftElbow
						{
OFFSET 0 -5.324620 -0.000000
CHANNELS 3 Zrotation Xrotation Yrotation
							JOINT LeftWrist
							{
OFFSET 0 -3.484020 -0.000000
CHANNELS 3 Zrotation Xrotation Yrotation
								JOINT lhand
								{
									OFFSET 0 0 0
CHANNELS 3 Zrotation Xrotation Yrotation
									JOINT LFingers
									{
OFFSET 0 -0.572480 -0.000000
CHANNELS 3 Zrotation Xrotation Yrotation
										End Site
										{
OFFSET 0 -0.461540 -0.000000
										}
									}
								}
								JOINT LThumb
								{
OFFSET 0 0.000000 0.000000
CHANNELS 3 Zrotation Xrotation Yrotation
									End Site
									{
OFFSET 0 -0.468590 0.468590
									}
								}
							}
						}
					}
				}
				JOINT RightCollar
				{
					OFFSET 0 0 0
					CHANNELS 3 Zrotation Yrotation Xrotation
					JOINT RightShoulder
					{
						OFFSET -3.41766 0.93592 -0.10019
CHANNELS 3 Zrotation Xrotation Yrotation
						JOINT RightElbow
						{
OFFSET 0 -5.335890 -0.000000
CHANNELS 3 Zrotation Xrotation Yrotation
							JOINT RightWrist
							{
OFFSET 0 -3.641340 -0.000000
CHANNELS 3 Zrotation Xrotation Yrotation
								JOINT rhand
								{
									OFFSET 0 0 0
CHANNELS 3 Zrotation Xrotation Yrotation
									JOINT RFingers
									{
OFFSET 0 -0.734810 -0.000000
CHANNELS 3 Zrotation Xrotation Yrotation
										End Site
										{
OFFSET 0 -0.592420 -0.000000
										}
									}
								}
								JOINT RThumb
								{
OFFSET 0 0.000000 0.000000
CHANNELS 3 Zrotation Xrotation Yrotation
									End Site
									{
OFFSET 0 -0.601470 0.601470
									}
								}
							}
						}
					}
				}
			}
		}
	}
}
MOTION
Frames: 5
Frame Time: 0.008333333333333333
-9.428900 17.648900 -2.423800 2.242800 47.781400 7.938300 0.000000 0.000000 0.000000 -27.266700 0.851500 -15.011100 2.233800 9.337000 26.855100 0.947700 -2.001300 -17.833100 0.116000 -2.195400 -6.046100 0.000000 0.000000 0.000000 8.054300 9.582600 -28.332800 -5.266000 -13.677200 41.959400 -0.429800 -2.029900 -13.290400 -0.000700 -0.174000 0.478200 -6.244700 -2.019100 3.931400 1.940700 -2.909100 0.973700 5.643100 -1.454000 -0.783700 -6.645200 4.161200 -12.648400 2.818600 8.566900 41.824100 4.019700 3.178000 16.916100 0.000000 -0.000000 0.000000 0.235600 -3.857600 -17.273700 12.436400 -20.455900 2.252500 18.310200 17.997200 -25.232900 0.000000 0.000000 0.000000 -7.125000 0.000000 0.000000 -12.297300 55.955000 3.340900 0.000000 -0.000000 0.000000 -4.750900 1.784800 13.641400 -20.541900 -31.289700 -5.810200 -25.180400 20.176500 -0.286400 0.000000 0.000000 0.000000 7.125000 0.000000 -0.000000 1.088500 29.662500 0.407200
-9.405500 17.630569 -2.422033 2.646479 48.415777 8.427892 0.000000 0.000000 0.000000 -27.548948 1.038221 -15.337703 2.258254 9.384508 27.005726 0.971700 -2.982301 -17.866889 0.079238 -1.815655 -4.996399 0.000000 0.000000 0.000000 8.095606 8.904990 -30.384362 -5.860948 -14.291857 44.420398 -0.421502 -4.629939 -14.847754 -0.003625 0.368486 -1.012565 -6.143636 -1.908294 3.986146 2.034662 -2.753016 1.200220 5.675836 -1.387996 -0.602088 -6.905327 4.643741 -11.779266 3.234190 9.221808 42.119953 4.318530 3.492492 16.758631 0.000000 0.000000 0.000000 0.114262 -3.872387 -17.491868 13.025525 -21.324578 2.462595 18.744451 17.312270 -25.209264 0.000000 0.000000 0.000000 -7.125000 0.000000 0.000000 -11.835459 56.019973 3.231876 0.000000 0.000000 0.000000 -5.207348 2.180328 12.962761 -20.208740 -30.892875 -5.638183 -25.287230 20.677427 -0.011998 0.000000 0.000000 0.000000 7.125000 0.000000 0.000000 1.007352 29.965795 0.369597
-9.367217 17.623296 -2.403954 3.442467 49.106058 9.259014 0.000000 0.000000 0.000000 -28.095329 0.893286 -15.253758 2.216826 9.303742 26.750294 0.959996 -3.507652 -17.671588 0.061351 -1.598160 -4.396521 0.000000 0.000000 0.000000 8.004951 8.155630 -32.199017 -6.220085 -14.638331 45.858868 -0.488199 -4.781054 -15.817773 -0.008156 -0.582779 1.601495 -6.373630 -1.981903 4.000829 2.105229 -2.854262 1.407233 5.878578 -1.453519 -0.365460 -7.314626 4.895103 -11.171745 3.377174 9.628024 42.075364 4.468106 3.646329 16.513181 0.000000 0.000000 0.000000 0.100771 -3.651217 -17.661127 13.649886 -22.231981 2.694254 18.808212 16.466066 -24.643926 0.000000 0.000000 0.000000 -7.125000 0.000000 0.000000 -11.499473 55.466251 2.982854 0.000000 0.000000 0.000000 -5.723541 2.205848 12.278629 -19.553611 -30.100771 -5.305661 -24.911714 21.696321 0.149684 0.000000 0.000000 0.000000 7.125000 0.000000 0.000000 1.305714 30.143578 0.473607
-9.310066 17.623595 -2.373048 3.568297 49.619711 9.599623 0.000000 0.000000 0.000000 -28.160023 1.296923 -15.383213 2.195672 9.262247 26.619235 0.972068 -4.422631 -17.677428 0.044533 -1.361766 -3.744750 0.000000 0.000000 0.000000 8.597872 7.487742 -33.730574 -6.278660 -14.693039 46.089972 -0.518608 -4.184411 -15.779544 -0.001117 -0.187697 0.515734 -6.317348 -2.129279 3.929367 2.409403 -3.038174 1.534442 6.164129 -1.558164 -0.151659 -7.842907 5.121991 -10.691166 3.229957 10.172132 42.168380 4.546873 3.787834 16.390571 0.000000 0.000000 0.000000 -0.358928 -3.637140 -17.439088 13.930647 -22.635402 2.801398 18.213159 15.067706 -25.344785 0.000000 0.000000 0.000000 -7.125000 0.000000 0.000000 -12.453469 56.046637 3.412342 0.000000 0.000000 0.000000 -6.638305 2.312530 12.351822 -18.645224 -28.975274 -4.857816 -25.358369 21.035702 -0.496390 0.000000 0.000000 0.000000 7.125000 0.000000 0.000000 0.946887 29.429881 0.359625
-9.247298 17.614552 -2.337220 3.618563 50.045811 9.923884 0.000000 0.000000 0.000000 -28.220163 1.478228 -15.499865 2.191862 9.254814 26.595524 0.987284 -4.843743 -17.783357 0.060968 -1.593284 -4.382976 0.000000 0.000000 0.000000 9.385759 6.967168 -35.078388 -6.129109 -14.552335 45.497798 -0.482644 -3.542130 -14.898976 -0.067478 1.674672 -4.607608 -6.134072 -2.141845 4.019176 2.609960 -3.050378 1.543846 6.275216 -1.562896 -0.188975 -8.329711 5.035827 -10.371120 3.307621 10.148174 42.314593 4.651232 3.722055 16.361049 0.000000 0.000000 0.000000 -0.488588 -3.522410 -16.291042 13.737232 -22.357764 2.727313 18.613759 16.966468 -25.194092 0.000000 0.000000 0.000000 -7.125000 0.000000 0.000000 -11.963709 55.978149 3.255188 0.000000 0.000000 0.000000 -7.189972 2.631206 11.313363 -17.916631 -28.050170 -4.509947 -24.863572 21.577371 -0.882208 0.000000 0.000000 0.000000 7.125000 0.000000 0.000000 1.331067 29.006379 0.518896
